<?xml version="1.0" encoding="UTF-8"?>
<svg width="800" height="400" xmlns="http://www.w3.org/2000/svg" style="background-color: #ffffff;">
  <defs>
    <filter id="glow">
      <feGaussianBlur stdDeviation="3" result="coloredBlur"/>
      <feMerge> 
        <feMergeNode in="coloredBlur"/>
        <feMergeNode in="SourceGraphic"/>
      </feMerge>
    </filter>
    <linearGradient id="trailGradient" x1="0%" y1="0%" x2="100%" y2="0%">
      <stop offset="0%" style="stop-color:#00ffff;stop-opacity:0"/>
      <stop offset="100%" style="stop-color:#00ffff;stop-opacity:1"/>
    </linearGradient>
  </defs>
  
  <!-- Background -->
  <rect width="800" height="400" fill="#ffffff"/>
  
  <!-- Title -->
  <text x="400" y="30" text-anchor="middle" fill="#24292f" font-family="Arial, sans-serif" font-size="20" font-weight="bold">
    🏍️ markpython86's Tron Light Cycles
  </text>
  
  <!-- Contribution Grid -->
  <rect x="20" y="60" width="13.615384615384615" height="41.857142857142854" fill="#161b22" rx="2"/><rect x="34.61538461538461" y="60" width="13.615384615384615" height="41.857142857142854" fill="#161b22" rx="2"/><rect x="49.230769230769226" y="60" width="13.615384615384615" height="41.857142857142854" fill="#161b22" rx="2"/><rect x="63.84615384615385" y="60" width="13.615384615384615" height="41.857142857142854" fill="#161b22" rx="2"/><rect x="78.46153846153845" y="60" width="13.615384615384615" height="41.857142857142854" fill="#161b22" rx="2"/><rect x="93.07692307692308" y="60" width="13.615384615384615" height="41.857142857142854" fill="#161b22" rx="2"/><rect x="107.6923076923077" y="60" width="13.615384615384615" height="41.857142857142854" fill="#161b22" rx="2"/><rect x="122.3076923076923" y="60" width="13.615384615384615" height="41.857142857142854" fill="#161b22" rx="2"/><rect x="136.9230769230769" y="60" width="13.615384615384615" height="41.857142857142854" fill="#161b22" rx="2"/><rect x="151.53846153846155" y="60" width="13.615384615384615" height="41.857142857142854" fill="#161b22" rx="2"/><rect x="166.15384615384616" y="60" width="13.615384615384615" height="41.857142857142854" fill="#39d353" rx="2"/><rect x="180.76923076923077" y="60" width="13.615384615384615" height="41.857142857142854" fill="#161b22" rx="2"/><rect x="195.3846153846154" y="60" width="13.615384615384615" height="41.857142857142854" fill="#161b22" rx="2"/><rect x="210" y="60" width="13.615384615384615" height="41.857142857142854" fill="#161b22" rx="2"/><rect x="224.6153846153846" y="60" width="13.615384615384615" height="41.857142857142854" fill="#161b22" rx="2"/><rect x="239.23076923076923" y="60" width="13.615384615384615" height="41.857142857142854" fill="#161b22" rx="2"/><rect x="253.84615384615384" y="60" width="13.615384615384615" height="41.857142857142854" fill="#161b22" rx="2"/><rect x="268.46153846153845" y="60" width="13.615384615384615" height="41.857142857142854" fill="#161b22" rx="2"/><rect x="283.0769230769231" y="60" width="13.615384615384615" height="41.857142857142854" fill="#161b22" rx="2"/><rect x="297.6923076923077" y="60" width="13.615384615384615" height="41.857142857142854" fill="#161b22" rx="2"/><rect x="312.3076923076923" y="60" width="13.615384615384615" height="41.857142857142854" fill="#161b22" rx="2"/><rect x="326.9230769230769" y="60" width="13.615384615384615" height="41.857142857142854" fill="#161b22" rx="2"/><rect x="341.53846153846155" y="60" width="13.615384615384615" height="41.857142857142854" fill="#161b22" rx="2"/><rect x="356.15384615384613" y="60" width="13.615384615384615" height="41.857142857142854" fill="#161b22" rx="2"/><rect x="370.7692307692308" y="60" width="13.615384615384615" height="41.857142857142854" fill="#161b22" rx="2"/><rect x="385.38461538461536" y="60" width="13.615384615384615" height="41.857142857142854" fill="#39d353" rx="2"/><rect x="400" y="60" width="13.615384615384615" height="41.857142857142854" fill="#161b22" rx="2"/><rect x="414.6153846153846" y="60" width="13.615384615384615" height="41.857142857142854" fill="#006d32" rx="2"/><rect x="429.2307692307692" y="60" width="13.615384615384615" height="41.857142857142854" fill="#161b22" rx="2"/><rect x="443.8461538461538" y="60" width="13.615384615384615" height="41.857142857142854" fill="#161b22" rx="2"/><rect x="458.46153846153845" y="60" width="13.615384615384615" height="41.857142857142854" fill="#161b22" rx="2"/><rect x="473.07692307692304" y="60" width="13.615384615384615" height="41.857142857142854" fill="#161b22" rx="2"/><rect x="487.6923076923077" y="60" width="13.615384615384615" height="41.857142857142854" fill="#161b22" rx="2"/><rect x="502.3076923076923" y="60" width="13.615384615384615" height="41.857142857142854" fill="#161b22" rx="2"/><rect x="516.9230769230769" y="60" width="13.615384615384615" height="41.857142857142854" fill="#161b22" rx="2"/><rect x="531.5384615384615" y="60" width="13.615384615384615" height="41.857142857142854" fill="#161b22" rx="2"/><rect x="546.1538461538462" y="60" width="13.615384615384615" height="41.857142857142854" fill="#161b22" rx="2"/><rect x="560.7692307692307" y="60" width="13.615384615384615" height="41.857142857142854" fill="#161b22" rx="2"/><rect x="575.3846153846154" y="60" width="13.615384615384615" height="41.857142857142854" fill="#161b22" rx="2"/><rect x="590" y="60" width="13.615384615384615" height="41.857142857142854" fill="#161b22" rx="2"/><rect x="604.6153846153846" y="60" width="13.615384615384615" height="41.857142857142854" fill="#161b22" rx="2"/><rect x="619.2307692307692" y="60" width="13.615384615384615" height="41.857142857142854" fill="#161b22" rx="2"/><rect x="633.8461538461538" y="60" width="13.615384615384615" height="41.857142857142854" fill="#161b22" rx="2"/><rect x="648.4615384615385" y="60" width="13.615384615384615" height="41.857142857142854" fill="#161b22" rx="2"/><rect x="663.0769230769231" y="60" width="13.615384615384615" height="41.857142857142854" fill="#161b22" rx="2"/><rect x="677.6923076923076" y="60" width="13.615384615384615" height="41.857142857142854" fill="#161b22" rx="2"/><rect x="692.3076923076923" y="60" width="13.615384615384615" height="41.857142857142854" fill="#161b22" rx="2"/><rect x="706.9230769230769" y="60" width="13.615384615384615" height="41.857142857142854" fill="#161b22" rx="2"/><rect x="721.5384615384615" y="60" width="13.615384615384615" height="41.857142857142854" fill="#161b22" rx="2"/><rect x="736.1538461538462" y="60" width="13.615384615384615" height="41.857142857142854" fill="#161b22" rx="2"/><rect x="750.7692307692307" y="60" width="13.615384615384615" height="41.857142857142854" fill="#161b22" rx="2"/><rect x="765.3846153846154" y="60" width="13.615384615384615" height="41.857142857142854" fill="#161b22" rx="2"/><rect x="20" y="102.85714285714286" width="13.615384615384615" height="41.857142857142854" fill="#161b22" rx="2"/><rect x="34.61538461538461" y="102.85714285714286" width="13.615384615384615" height="41.857142857142854" fill="#39d353" rx="2"/><rect x="49.230769230769226" y="102.85714285714286" width="13.615384615384615" height="41.857142857142854" fill="#006d32" rx="2"/><rect x="63.84615384615385" y="102.85714285714286" width="13.615384615384615" height="41.857142857142854" fill="#0e4429" rx="2"/><rect x="78.46153846153845" y="102.85714285714286" width="13.615384615384615" height="41.857142857142854" fill="#39d353" rx="2"/><rect x="93.07692307692308" y="102.85714285714286" width="13.615384615384615" height="41.857142857142854" fill="#26a641" rx="2"/><rect x="107.6923076923077" y="102.85714285714286" width="13.615384615384615" height="41.857142857142854" fill="#161b22" rx="2"/><rect x="122.3076923076923" y="102.85714285714286" width="13.615384615384615" height="41.857142857142854" fill="#161b22" rx="2"/><rect x="136.9230769230769" y="102.85714285714286" width="13.615384615384615" height="41.857142857142854" fill="#39d353" rx="2"/><rect x="151.53846153846155" y="102.85714285714286" width="13.615384615384615" height="41.857142857142854" fill="#161b22" rx="2"/><rect x="166.15384615384616" y="102.85714285714286" width="13.615384615384615" height="41.857142857142854" fill="#26a641" rx="2"/><rect x="180.76923076923077" y="102.85714285714286" width="13.615384615384615" height="41.857142857142854" fill="#161b22" rx="2"/><rect x="195.3846153846154" y="102.85714285714286" width="13.615384615384615" height="41.857142857142854" fill="#0e4429" rx="2"/><rect x="210" y="102.85714285714286" width="13.615384615384615" height="41.857142857142854" fill="#006d32" rx="2"/><rect x="224.6153846153846" y="102.85714285714286" width="13.615384615384615" height="41.857142857142854" fill="#161b22" rx="2"/><rect x="239.23076923076923" y="102.85714285714286" width="13.615384615384615" height="41.857142857142854" fill="#161b22" rx="2"/><rect x="253.84615384615384" y="102.85714285714286" width="13.615384615384615" height="41.857142857142854" fill="#161b22" rx="2"/><rect x="268.46153846153845" y="102.85714285714286" width="13.615384615384615" height="41.857142857142854" fill="#26a641" rx="2"/><rect x="283.0769230769231" y="102.85714285714286" width="13.615384615384615" height="41.857142857142854" fill="#161b22" rx="2"/><rect x="297.6923076923077" y="102.85714285714286" width="13.615384615384615" height="41.857142857142854" fill="#161b22" rx="2"/><rect x="312.3076923076923" y="102.85714285714286" width="13.615384615384615" height="41.857142857142854" fill="#161b22" rx="2"/><rect x="326.9230769230769" y="102.85714285714286" width="13.615384615384615" height="41.857142857142854" fill="#161b22" rx="2"/><rect x="341.53846153846155" y="102.85714285714286" width="13.615384615384615" height="41.857142857142854" fill="#161b22" rx="2"/><rect x="356.15384615384613" y="102.85714285714286" width="13.615384615384615" height="41.857142857142854" fill="#26a641" rx="2"/><rect x="370.7692307692308" y="102.85714285714286" width="13.615384615384615" height="41.857142857142854" fill="#161b22" rx="2"/><rect x="385.38461538461536" y="102.85714285714286" width="13.615384615384615" height="41.857142857142854" fill="#161b22" rx="2"/><rect x="400" y="102.85714285714286" width="13.615384615384615" height="41.857142857142854" fill="#161b22" rx="2"/><rect x="414.6153846153846" y="102.85714285714286" width="13.615384615384615" height="41.857142857142854" fill="#161b22" rx="2"/><rect x="429.2307692307692" y="102.85714285714286" width="13.615384615384615" height="41.857142857142854" fill="#26a641" rx="2"/><rect x="443.8461538461538" y="102.85714285714286" width="13.615384615384615" height="41.857142857142854" fill="#161b22" rx="2"/><rect x="458.46153846153845" y="102.85714285714286" width="13.615384615384615" height="41.857142857142854" fill="#161b22" rx="2"/><rect x="473.07692307692304" y="102.85714285714286" width="13.615384615384615" height="41.857142857142854" fill="#161b22" rx="2"/><rect x="487.6923076923077" y="102.85714285714286" width="13.615384615384615" height="41.857142857142854" fill="#161b22" rx="2"/><rect x="502.3076923076923" y="102.85714285714286" width="13.615384615384615" height="41.857142857142854" fill="#161b22" rx="2"/><rect x="516.9230769230769" y="102.85714285714286" width="13.615384615384615" height="41.857142857142854" fill="#161b22" rx="2"/><rect x="531.5384615384615" y="102.85714285714286" width="13.615384615384615" height="41.857142857142854" fill="#161b22" rx="2"/><rect x="546.1538461538462" y="102.85714285714286" width="13.615384615384615" height="41.857142857142854" fill="#161b22" rx="2"/><rect x="560.7692307692307" y="102.85714285714286" width="13.615384615384615" height="41.857142857142854" fill="#161b22" rx="2"/><rect x="575.3846153846154" y="102.85714285714286" width="13.615384615384615" height="41.857142857142854" fill="#161b22" rx="2"/><rect x="590" y="102.85714285714286" width="13.615384615384615" height="41.857142857142854" fill="#161b22" rx="2"/><rect x="604.6153846153846" y="102.85714285714286" width="13.615384615384615" height="41.857142857142854" fill="#161b22" rx="2"/><rect x="619.2307692307692" y="102.85714285714286" width="13.615384615384615" height="41.857142857142854" fill="#161b22" rx="2"/><rect x="633.8461538461538" y="102.85714285714286" width="13.615384615384615" height="41.857142857142854" fill="#161b22" rx="2"/><rect x="648.4615384615385" y="102.85714285714286" width="13.615384615384615" height="41.857142857142854" fill="#161b22" rx="2"/><rect x="663.0769230769231" y="102.85714285714286" width="13.615384615384615" height="41.857142857142854" fill="#161b22" rx="2"/><rect x="677.6923076923076" y="102.85714285714286" width="13.615384615384615" height="41.857142857142854" fill="#161b22" rx="2"/><rect x="692.3076923076923" y="102.85714285714286" width="13.615384615384615" height="41.857142857142854" fill="#161b22" rx="2"/><rect x="706.9230769230769" y="102.85714285714286" width="13.615384615384615" height="41.857142857142854" fill="#161b22" rx="2"/><rect x="721.5384615384615" y="102.85714285714286" width="13.615384615384615" height="41.857142857142854" fill="#161b22" rx="2"/><rect x="736.1538461538462" y="102.85714285714286" width="13.615384615384615" height="41.857142857142854" fill="#161b22" rx="2"/><rect x="750.7692307692307" y="102.85714285714286" width="13.615384615384615" height="41.857142857142854" fill="#161b22" rx="2"/><rect x="765.3846153846154" y="102.85714285714286" width="13.615384615384615" height="41.857142857142854" fill="#161b22" rx="2"/><rect x="20" y="145.71428571428572" width="13.615384615384615" height="41.857142857142854" fill="#161b22" rx="2"/><rect x="34.61538461538461" y="145.71428571428572" width="13.615384615384615" height="41.857142857142854" fill="#39d353" rx="2"/><rect x="49.230769230769226" y="145.71428571428572" width="13.615384615384615" height="41.857142857142854" fill="#161b22" rx="2"/><rect x="63.84615384615385" y="145.71428571428572" width="13.615384615384615" height="41.857142857142854" fill="#0e4429" rx="2"/><rect x="78.46153846153845" y="145.71428571428572" width="13.615384615384615" height="41.857142857142854" fill="#161b22" rx="2"/><rect x="93.07692307692308" y="145.71428571428572" width="13.615384615384615" height="41.857142857142854" fill="#161b22" rx="2"/><rect x="107.6923076923077" y="145.71428571428572" width="13.615384615384615" height="41.857142857142854" fill="#161b22" rx="2"/><rect x="122.3076923076923" y="145.71428571428572" width="13.615384615384615" height="41.857142857142854" fill="#161b22" rx="2"/><rect x="136.9230769230769" y="145.71428571428572" width="13.615384615384615" height="41.857142857142854" fill="#161b22" rx="2"/><rect x="151.53846153846155" y="145.71428571428572" width="13.615384615384615" height="41.857142857142854" fill="#161b22" rx="2"/><rect x="166.15384615384616" y="145.71428571428572" width="13.615384615384615" height="41.857142857142854" fill="#006d32" rx="2"/><rect x="180.76923076923077" y="145.71428571428572" width="13.615384615384615" height="41.857142857142854" fill="#39d353" rx="2"/><rect x="195.3846153846154" y="145.71428571428572" width="13.615384615384615" height="41.857142857142854" fill="#161b22" rx="2"/><rect x="210" y="145.71428571428572" width="13.615384615384615" height="41.857142857142854" fill="#26a641" rx="2"/><rect x="224.6153846153846" y="145.71428571428572" width="13.615384615384615" height="41.857142857142854" fill="#0e4429" rx="2"/><rect x="239.23076923076923" y="145.71428571428572" width="13.615384615384615" height="41.857142857142854" fill="#161b22" rx="2"/><rect x="253.84615384615384" y="145.71428571428572" width="13.615384615384615" height="41.857142857142854" fill="#161b22" rx="2"/><rect x="268.46153846153845" y="145.71428571428572" width="13.615384615384615" height="41.857142857142854" fill="#39d353" rx="2"/><rect x="283.0769230769231" y="145.71428571428572" width="13.615384615384615" height="41.857142857142854" fill="#0e4429" rx="2"/><rect x="297.6923076923077" y="145.71428571428572" width="13.615384615384615" height="41.857142857142854" fill="#0e4429" rx="2"/><rect x="312.3076923076923" y="145.71428571428572" width="13.615384615384615" height="41.857142857142854" fill="#161b22" rx="2"/><rect x="326.9230769230769" y="145.71428571428572" width="13.615384615384615" height="41.857142857142854" fill="#006d32" rx="2"/><rect x="341.53846153846155" y="145.71428571428572" width="13.615384615384615" height="41.857142857142854" fill="#161b22" rx="2"/><rect x="356.15384615384613" y="145.71428571428572" width="13.615384615384615" height="41.857142857142854" fill="#161b22" rx="2"/><rect x="370.7692307692308" y="145.71428571428572" width="13.615384615384615" height="41.857142857142854" fill="#161b22" rx="2"/><rect x="385.38461538461536" y="145.71428571428572" width="13.615384615384615" height="41.857142857142854" fill="#161b22" rx="2"/><rect x="400" y="145.71428571428572" width="13.615384615384615" height="41.857142857142854" fill="#161b22" rx="2"/><rect x="414.6153846153846" y="145.71428571428572" width="13.615384615384615" height="41.857142857142854" fill="#161b22" rx="2"/><rect x="429.2307692307692" y="145.71428571428572" width="13.615384615384615" height="41.857142857142854" fill="#161b22" rx="2"/><rect x="443.8461538461538" y="145.71428571428572" width="13.615384615384615" height="41.857142857142854" fill="#161b22" rx="2"/><rect x="458.46153846153845" y="145.71428571428572" width="13.615384615384615" height="41.857142857142854" fill="#161b22" rx="2"/><rect x="473.07692307692304" y="145.71428571428572" width="13.615384615384615" height="41.857142857142854" fill="#161b22" rx="2"/><rect x="487.6923076923077" y="145.71428571428572" width="13.615384615384615" height="41.857142857142854" fill="#161b22" rx="2"/><rect x="502.3076923076923" y="145.71428571428572" width="13.615384615384615" height="41.857142857142854" fill="#161b22" rx="2"/><rect x="516.9230769230769" y="145.71428571428572" width="13.615384615384615" height="41.857142857142854" fill="#161b22" rx="2"/><rect x="531.5384615384615" y="145.71428571428572" width="13.615384615384615" height="41.857142857142854" fill="#161b22" rx="2"/><rect x="546.1538461538462" y="145.71428571428572" width="13.615384615384615" height="41.857142857142854" fill="#161b22" rx="2"/><rect x="560.7692307692307" y="145.71428571428572" width="13.615384615384615" height="41.857142857142854" fill="#161b22" rx="2"/><rect x="575.3846153846154" y="145.71428571428572" width="13.615384615384615" height="41.857142857142854" fill="#161b22" rx="2"/><rect x="590" y="145.71428571428572" width="13.615384615384615" height="41.857142857142854" fill="#161b22" rx="2"/><rect x="604.6153846153846" y="145.71428571428572" width="13.615384615384615" height="41.857142857142854" fill="#161b22" rx="2"/><rect x="619.2307692307692" y="145.71428571428572" width="13.615384615384615" height="41.857142857142854" fill="#161b22" rx="2"/><rect x="633.8461538461538" y="145.71428571428572" width="13.615384615384615" height="41.857142857142854" fill="#161b22" rx="2"/><rect x="648.4615384615385" y="145.71428571428572" width="13.615384615384615" height="41.857142857142854" fill="#161b22" rx="2"/><rect x="663.0769230769231" y="145.71428571428572" width="13.615384615384615" height="41.857142857142854" fill="#161b22" rx="2"/><rect x="677.6923076923076" y="145.71428571428572" width="13.615384615384615" height="41.857142857142854" fill="#39d353" rx="2"/><rect x="692.3076923076923" y="145.71428571428572" width="13.615384615384615" height="41.857142857142854" fill="#26a641" rx="2"/><rect x="706.9230769230769" y="145.71428571428572" width="13.615384615384615" height="41.857142857142854" fill="#161b22" rx="2"/><rect x="721.5384615384615" y="145.71428571428572" width="13.615384615384615" height="41.857142857142854" fill="#161b22" rx="2"/><rect x="736.1538461538462" y="145.71428571428572" width="13.615384615384615" height="41.857142857142854" fill="#161b22" rx="2"/><rect x="750.7692307692307" y="145.71428571428572" width="13.615384615384615" height="41.857142857142854" fill="#26a641" rx="2"/><rect x="765.3846153846154" y="145.71428571428572" width="13.615384615384615" height="41.857142857142854" fill="#161b22" rx="2"/><rect x="20" y="188.57142857142856" width="13.615384615384615" height="41.857142857142854" fill="#161b22" rx="2"/><rect x="34.61538461538461" y="188.57142857142856" width="13.615384615384615" height="41.857142857142854" fill="#161b22" rx="2"/><rect x="49.230769230769226" y="188.57142857142856" width="13.615384615384615" height="41.857142857142854" fill="#161b22" rx="2"/><rect x="63.84615384615385" y="188.57142857142856" width="13.615384615384615" height="41.857142857142854" fill="#161b22" rx="2"/><rect x="78.46153846153845" y="188.57142857142856" width="13.615384615384615" height="41.857142857142854" fill="#39d353" rx="2"/><rect x="93.07692307692308" y="188.57142857142856" width="13.615384615384615" height="41.857142857142854" fill="#0e4429" rx="2"/><rect x="107.6923076923077" y="188.57142857142856" width="13.615384615384615" height="41.857142857142854" fill="#161b22" rx="2"/><rect x="122.3076923076923" y="188.57142857142856" width="13.615384615384615" height="41.857142857142854" fill="#006d32" rx="2"/><rect x="136.9230769230769" y="188.57142857142856" width="13.615384615384615" height="41.857142857142854" fill="#006d32" rx="2"/><rect x="151.53846153846155" y="188.57142857142856" width="13.615384615384615" height="41.857142857142854" fill="#161b22" rx="2"/><rect x="166.15384615384616" y="188.57142857142856" width="13.615384615384615" height="41.857142857142854" fill="#39d353" rx="2"/><rect x="180.76923076923077" y="188.57142857142856" width="13.615384615384615" height="41.857142857142854" fill="#161b22" rx="2"/><rect x="195.3846153846154" y="188.57142857142856" width="13.615384615384615" height="41.857142857142854" fill="#39d353" rx="2"/><rect x="210" y="188.57142857142856" width="13.615384615384615" height="41.857142857142854" fill="#161b22" rx="2"/><rect x="224.6153846153846" y="188.57142857142856" width="13.615384615384615" height="41.857142857142854" fill="#39d353" rx="2"/><rect x="239.23076923076923" y="188.57142857142856" width="13.615384615384615" height="41.857142857142854" fill="#0e4429" rx="2"/><rect x="253.84615384615384" y="188.57142857142856" width="13.615384615384615" height="41.857142857142854" fill="#39d353" rx="2"/><rect x="268.46153846153845" y="188.57142857142856" width="13.615384615384615" height="41.857142857142854" fill="#161b22" rx="2"/><rect x="283.0769230769231" y="188.57142857142856" width="13.615384615384615" height="41.857142857142854" fill="#0e4429" rx="2"/><rect x="297.6923076923077" y="188.57142857142856" width="13.615384615384615" height="41.857142857142854" fill="#161b22" rx="2"/><rect x="312.3076923076923" y="188.57142857142856" width="13.615384615384615" height="41.857142857142854" fill="#161b22" rx="2"/><rect x="326.9230769230769" y="188.57142857142856" width="13.615384615384615" height="41.857142857142854" fill="#161b22" rx="2"/><rect x="341.53846153846155" y="188.57142857142856" width="13.615384615384615" height="41.857142857142854" fill="#161b22" rx="2"/><rect x="356.15384615384613" y="188.57142857142856" width="13.615384615384615" height="41.857142857142854" fill="#161b22" rx="2"/><rect x="370.7692307692308" y="188.57142857142856" width="13.615384615384615" height="41.857142857142854" fill="#161b22" rx="2"/><rect x="385.38461538461536" y="188.57142857142856" width="13.615384615384615" height="41.857142857142854" fill="#161b22" rx="2"/><rect x="400" y="188.57142857142856" width="13.615384615384615" height="41.857142857142854" fill="#161b22" rx="2"/><rect x="414.6153846153846" y="188.57142857142856" width="13.615384615384615" height="41.857142857142854" fill="#161b22" rx="2"/><rect x="429.2307692307692" y="188.57142857142856" width="13.615384615384615" height="41.857142857142854" fill="#161b22" rx="2"/><rect x="443.8461538461538" y="188.57142857142856" width="13.615384615384615" height="41.857142857142854" fill="#161b22" rx="2"/><rect x="458.46153846153845" y="188.57142857142856" width="13.615384615384615" height="41.857142857142854" fill="#161b22" rx="2"/><rect x="473.07692307692304" y="188.57142857142856" width="13.615384615384615" height="41.857142857142854" fill="#161b22" rx="2"/><rect x="487.6923076923077" y="188.57142857142856" width="13.615384615384615" height="41.857142857142854" fill="#161b22" rx="2"/><rect x="502.3076923076923" y="188.57142857142856" width="13.615384615384615" height="41.857142857142854" fill="#161b22" rx="2"/><rect x="516.9230769230769" y="188.57142857142856" width="13.615384615384615" height="41.857142857142854" fill="#161b22" rx="2"/><rect x="531.5384615384615" y="188.57142857142856" width="13.615384615384615" height="41.857142857142854" fill="#161b22" rx="2"/><rect x="546.1538461538462" y="188.57142857142856" width="13.615384615384615" height="41.857142857142854" fill="#161b22" rx="2"/><rect x="560.7692307692307" y="188.57142857142856" width="13.615384615384615" height="41.857142857142854" fill="#161b22" rx="2"/><rect x="575.3846153846154" y="188.57142857142856" width="13.615384615384615" height="41.857142857142854" fill="#161b22" rx="2"/><rect x="590" y="188.57142857142856" width="13.615384615384615" height="41.857142857142854" fill="#161b22" rx="2"/><rect x="604.6153846153846" y="188.57142857142856" width="13.615384615384615" height="41.857142857142854" fill="#161b22" rx="2"/><rect x="619.2307692307692" y="188.57142857142856" width="13.615384615384615" height="41.857142857142854" fill="#161b22" rx="2"/><rect x="633.8461538461538" y="188.57142857142856" width="13.615384615384615" height="41.857142857142854" fill="#161b22" rx="2"/><rect x="648.4615384615385" y="188.57142857142856" width="13.615384615384615" height="41.857142857142854" fill="#161b22" rx="2"/><rect x="663.0769230769231" y="188.57142857142856" width="13.615384615384615" height="41.857142857142854" fill="#161b22" rx="2"/><rect x="677.6923076923076" y="188.57142857142856" width="13.615384615384615" height="41.857142857142854" fill="#161b22" rx="2"/><rect x="692.3076923076923" y="188.57142857142856" width="13.615384615384615" height="41.857142857142854" fill="#161b22" rx="2"/><rect x="706.9230769230769" y="188.57142857142856" width="13.615384615384615" height="41.857142857142854" fill="#161b22" rx="2"/><rect x="721.5384615384615" y="188.57142857142856" width="13.615384615384615" height="41.857142857142854" fill="#161b22" rx="2"/><rect x="736.1538461538462" y="188.57142857142856" width="13.615384615384615" height="41.857142857142854" fill="#161b22" rx="2"/><rect x="750.7692307692307" y="188.57142857142856" width="13.615384615384615" height="41.857142857142854" fill="#0e4429" rx="2"/><rect x="765.3846153846154" y="188.57142857142856" width="13.615384615384615" height="41.857142857142854" fill="#161b22" rx="2"/><rect x="20" y="231.42857142857142" width="13.615384615384615" height="41.857142857142854" fill="#161b22" rx="2"/><rect x="34.61538461538461" y="231.42857142857142" width="13.615384615384615" height="41.857142857142854" fill="#006d32" rx="2"/><rect x="49.230769230769226" y="231.42857142857142" width="13.615384615384615" height="41.857142857142854" fill="#0e4429" rx="2"/><rect x="63.84615384615385" y="231.42857142857142" width="13.615384615384615" height="41.857142857142854" fill="#161b22" rx="2"/><rect x="78.46153846153845" y="231.42857142857142" width="13.615384615384615" height="41.857142857142854" fill="#0e4429" rx="2"/><rect x="93.07692307692308" y="231.42857142857142" width="13.615384615384615" height="41.857142857142854" fill="#161b22" rx="2"/><rect x="107.6923076923077" y="231.42857142857142" width="13.615384615384615" height="41.857142857142854" fill="#161b22" rx="2"/><rect x="122.3076923076923" y="231.42857142857142" width="13.615384615384615" height="41.857142857142854" fill="#006d32" rx="2"/><rect x="136.9230769230769" y="231.42857142857142" width="13.615384615384615" height="41.857142857142854" fill="#0e4429" rx="2"/><rect x="151.53846153846155" y="231.42857142857142" width="13.615384615384615" height="41.857142857142854" fill="#0e4429" rx="2"/><rect x="166.15384615384616" y="231.42857142857142" width="13.615384615384615" height="41.857142857142854" fill="#161b22" rx="2"/><rect x="180.76923076923077" y="231.42857142857142" width="13.615384615384615" height="41.857142857142854" fill="#006d32" rx="2"/><rect x="195.3846153846154" y="231.42857142857142" width="13.615384615384615" height="41.857142857142854" fill="#161b22" rx="2"/><rect x="210" y="231.42857142857142" width="13.615384615384615" height="41.857142857142854" fill="#39d353" rx="2"/><rect x="224.6153846153846" y="231.42857142857142" width="13.615384615384615" height="41.857142857142854" fill="#39d353" rx="2"/><rect x="239.23076923076923" y="231.42857142857142" width="13.615384615384615" height="41.857142857142854" fill="#161b22" rx="2"/><rect x="253.84615384615384" y="231.42857142857142" width="13.615384615384615" height="41.857142857142854" fill="#161b22" rx="2"/><rect x="268.46153846153845" y="231.42857142857142" width="13.615384615384615" height="41.857142857142854" fill="#161b22" rx="2"/><rect x="283.0769230769231" y="231.42857142857142" width="13.615384615384615" height="41.857142857142854" fill="#161b22" rx="2"/><rect x="297.6923076923077" y="231.42857142857142" width="13.615384615384615" height="41.857142857142854" fill="#161b22" rx="2"/><rect x="312.3076923076923" y="231.42857142857142" width="13.615384615384615" height="41.857142857142854" fill="#161b22" rx="2"/><rect x="326.9230769230769" y="231.42857142857142" width="13.615384615384615" height="41.857142857142854" fill="#161b22" rx="2"/><rect x="341.53846153846155" y="231.42857142857142" width="13.615384615384615" height="41.857142857142854" fill="#161b22" rx="2"/><rect x="356.15384615384613" y="231.42857142857142" width="13.615384615384615" height="41.857142857142854" fill="#26a641" rx="2"/><rect x="370.7692307692308" y="231.42857142857142" width="13.615384615384615" height="41.857142857142854" fill="#26a641" rx="2"/><rect x="385.38461538461536" y="231.42857142857142" width="13.615384615384615" height="41.857142857142854" fill="#161b22" rx="2"/><rect x="400" y="231.42857142857142" width="13.615384615384615" height="41.857142857142854" fill="#161b22" rx="2"/><rect x="414.6153846153846" y="231.42857142857142" width="13.615384615384615" height="41.857142857142854" fill="#161b22" rx="2"/><rect x="429.2307692307692" y="231.42857142857142" width="13.615384615384615" height="41.857142857142854" fill="#161b22" rx="2"/><rect x="443.8461538461538" y="231.42857142857142" width="13.615384615384615" height="41.857142857142854" fill="#161b22" rx="2"/><rect x="458.46153846153845" y="231.42857142857142" width="13.615384615384615" height="41.857142857142854" fill="#161b22" rx="2"/><rect x="473.07692307692304" y="231.42857142857142" width="13.615384615384615" height="41.857142857142854" fill="#161b22" rx="2"/><rect x="487.6923076923077" y="231.42857142857142" width="13.615384615384615" height="41.857142857142854" fill="#161b22" rx="2"/><rect x="502.3076923076923" y="231.42857142857142" width="13.615384615384615" height="41.857142857142854" fill="#161b22" rx="2"/><rect x="516.9230769230769" y="231.42857142857142" width="13.615384615384615" height="41.857142857142854" fill="#161b22" rx="2"/><rect x="531.5384615384615" y="231.42857142857142" width="13.615384615384615" height="41.857142857142854" fill="#161b22" rx="2"/><rect x="546.1538461538462" y="231.42857142857142" width="13.615384615384615" height="41.857142857142854" fill="#161b22" rx="2"/><rect x="560.7692307692307" y="231.42857142857142" width="13.615384615384615" height="41.857142857142854" fill="#161b22" rx="2"/><rect x="575.3846153846154" y="231.42857142857142" width="13.615384615384615" height="41.857142857142854" fill="#161b22" rx="2"/><rect x="590" y="231.42857142857142" width="13.615384615384615" height="41.857142857142854" fill="#161b22" rx="2"/><rect x="604.6153846153846" y="231.42857142857142" width="13.615384615384615" height="41.857142857142854" fill="#161b22" rx="2"/><rect x="619.2307692307692" y="231.42857142857142" width="13.615384615384615" height="41.857142857142854" fill="#161b22" rx="2"/><rect x="633.8461538461538" y="231.42857142857142" width="13.615384615384615" height="41.857142857142854" fill="#161b22" rx="2"/><rect x="648.4615384615385" y="231.42857142857142" width="13.615384615384615" height="41.857142857142854" fill="#161b22" rx="2"/><rect x="663.0769230769231" y="231.42857142857142" width="13.615384615384615" height="41.857142857142854" fill="#161b22" rx="2"/><rect x="677.6923076923076" y="231.42857142857142" width="13.615384615384615" height="41.857142857142854" fill="#161b22" rx="2"/><rect x="692.3076923076923" y="231.42857142857142" width="13.615384615384615" height="41.857142857142854" fill="#161b22" rx="2"/><rect x="706.9230769230769" y="231.42857142857142" width="13.615384615384615" height="41.857142857142854" fill="#161b22" rx="2"/><rect x="721.5384615384615" y="231.42857142857142" width="13.615384615384615" height="41.857142857142854" fill="#161b22" rx="2"/><rect x="736.1538461538462" y="231.42857142857142" width="13.615384615384615" height="41.857142857142854" fill="#161b22" rx="2"/><rect x="750.7692307692307" y="231.42857142857142" width="13.615384615384615" height="41.857142857142854" fill="#161b22" rx="2"/><rect x="765.3846153846154" y="231.42857142857142" width="13.615384615384615" height="41.857142857142854" fill="#26a641" rx="2"/><rect x="20" y="274.2857142857143" width="13.615384615384615" height="41.857142857142854" fill="#161b22" rx="2"/><rect x="34.61538461538461" y="274.2857142857143" width="13.615384615384615" height="41.857142857142854" fill="#161b22" rx="2"/><rect x="49.230769230769226" y="274.2857142857143" width="13.615384615384615" height="41.857142857142854" fill="#161b22" rx="2"/><rect x="63.84615384615385" y="274.2857142857143" width="13.615384615384615" height="41.857142857142854" fill="#161b22" rx="2"/><rect x="78.46153846153845" y="274.2857142857143" width="13.615384615384615" height="41.857142857142854" fill="#161b22" rx="2"/><rect x="93.07692307692308" y="274.2857142857143" width="13.615384615384615" height="41.857142857142854" fill="#161b22" rx="2"/><rect x="107.6923076923077" y="274.2857142857143" width="13.615384615384615" height="41.857142857142854" fill="#161b22" rx="2"/><rect x="122.3076923076923" y="274.2857142857143" width="13.615384615384615" height="41.857142857142854" fill="#39d353" rx="2"/><rect x="136.9230769230769" y="274.2857142857143" width="13.615384615384615" height="41.857142857142854" fill="#161b22" rx="2"/><rect x="151.53846153846155" y="274.2857142857143" width="13.615384615384615" height="41.857142857142854" fill="#26a641" rx="2"/><rect x="166.15384615384616" y="274.2857142857143" width="13.615384615384615" height="41.857142857142854" fill="#161b22" rx="2"/><rect x="180.76923076923077" y="274.2857142857143" width="13.615384615384615" height="41.857142857142854" fill="#161b22" rx="2"/><rect x="195.3846153846154" y="274.2857142857143" width="13.615384615384615" height="41.857142857142854" fill="#161b22" rx="2"/><rect x="210" y="274.2857142857143" width="13.615384615384615" height="41.857142857142854" fill="#006d32" rx="2"/><rect x="224.6153846153846" y="274.2857142857143" width="13.615384615384615" height="41.857142857142854" fill="#26a641" rx="2"/><rect x="239.23076923076923" y="274.2857142857143" width="13.615384615384615" height="41.857142857142854" fill="#006d32" rx="2"/><rect x="253.84615384615384" y="274.2857142857143" width="13.615384615384615" height="41.857142857142854" fill="#0e4429" rx="2"/><rect x="268.46153846153845" y="274.2857142857143" width="13.615384615384615" height="41.857142857142854" fill="#161b22" rx="2"/><rect x="283.0769230769231" y="274.2857142857143" width="13.615384615384615" height="41.857142857142854" fill="#006d32" rx="2"/><rect x="297.6923076923077" y="274.2857142857143" width="13.615384615384615" height="41.857142857142854" fill="#161b22" rx="2"/><rect x="312.3076923076923" y="274.2857142857143" width="13.615384615384615" height="41.857142857142854" fill="#161b22" rx="2"/><rect x="326.9230769230769" y="274.2857142857143" width="13.615384615384615" height="41.857142857142854" fill="#161b22" rx="2"/><rect x="341.53846153846155" y="274.2857142857143" width="13.615384615384615" height="41.857142857142854" fill="#0e4429" rx="2"/><rect x="356.15384615384613" y="274.2857142857143" width="13.615384615384615" height="41.857142857142854" fill="#161b22" rx="2"/><rect x="370.7692307692308" y="274.2857142857143" width="13.615384615384615" height="41.857142857142854" fill="#39d353" rx="2"/><rect x="385.38461538461536" y="274.2857142857143" width="13.615384615384615" height="41.857142857142854" fill="#161b22" rx="2"/><rect x="400" y="274.2857142857143" width="13.615384615384615" height="41.857142857142854" fill="#161b22" rx="2"/><rect x="414.6153846153846" y="274.2857142857143" width="13.615384615384615" height="41.857142857142854" fill="#161b22" rx="2"/><rect x="429.2307692307692" y="274.2857142857143" width="13.615384615384615" height="41.857142857142854" fill="#161b22" rx="2"/><rect x="443.8461538461538" y="274.2857142857143" width="13.615384615384615" height="41.857142857142854" fill="#161b22" rx="2"/><rect x="458.46153846153845" y="274.2857142857143" width="13.615384615384615" height="41.857142857142854" fill="#161b22" rx="2"/><rect x="473.07692307692304" y="274.2857142857143" width="13.615384615384615" height="41.857142857142854" fill="#161b22" rx="2"/><rect x="487.6923076923077" y="274.2857142857143" width="13.615384615384615" height="41.857142857142854" fill="#161b22" rx="2"/><rect x="502.3076923076923" y="274.2857142857143" width="13.615384615384615" height="41.857142857142854" fill="#161b22" rx="2"/><rect x="516.9230769230769" y="274.2857142857143" width="13.615384615384615" height="41.857142857142854" fill="#161b22" rx="2"/><rect x="531.5384615384615" y="274.2857142857143" width="13.615384615384615" height="41.857142857142854" fill="#161b22" rx="2"/><rect x="546.1538461538462" y="274.2857142857143" width="13.615384615384615" height="41.857142857142854" fill="#161b22" rx="2"/><rect x="560.7692307692307" y="274.2857142857143" width="13.615384615384615" height="41.857142857142854" fill="#161b22" rx="2"/><rect x="575.3846153846154" y="274.2857142857143" width="13.615384615384615" height="41.857142857142854" fill="#161b22" rx="2"/><rect x="590" y="274.2857142857143" width="13.615384615384615" height="41.857142857142854" fill="#161b22" rx="2"/><rect x="604.6153846153846" y="274.2857142857143" width="13.615384615384615" height="41.857142857142854" fill="#161b22" rx="2"/><rect x="619.2307692307692" y="274.2857142857143" width="13.615384615384615" height="41.857142857142854" fill="#161b22" rx="2"/><rect x="633.8461538461538" y="274.2857142857143" width="13.615384615384615" height="41.857142857142854" fill="#161b22" rx="2"/><rect x="648.4615384615385" y="274.2857142857143" width="13.615384615384615" height="41.857142857142854" fill="#161b22" rx="2"/><rect x="663.0769230769231" y="274.2857142857143" width="13.615384615384615" height="41.857142857142854" fill="#161b22" rx="2"/><rect x="677.6923076923076" y="274.2857142857143" width="13.615384615384615" height="41.857142857142854" fill="#161b22" rx="2"/><rect x="692.3076923076923" y="274.2857142857143" width="13.615384615384615" height="41.857142857142854" fill="#161b22" rx="2"/><rect x="706.9230769230769" y="274.2857142857143" width="13.615384615384615" height="41.857142857142854" fill="#161b22" rx="2"/><rect x="721.5384615384615" y="274.2857142857143" width="13.615384615384615" height="41.857142857142854" fill="#161b22" rx="2"/><rect x="736.1538461538462" y="274.2857142857143" width="13.615384615384615" height="41.857142857142854" fill="#161b22" rx="2"/><rect x="750.7692307692307" y="274.2857142857143" width="13.615384615384615" height="41.857142857142854" fill="#161b22" rx="2"/><rect x="765.3846153846154" y="274.2857142857143" width="13.615384615384615" height="41.857142857142854" fill="#161b22" rx="2"/><rect x="20" y="317.1428571428571" width="13.615384615384615" height="41.857142857142854" fill="#161b22" rx="2"/><rect x="34.61538461538461" y="317.1428571428571" width="13.615384615384615" height="41.857142857142854" fill="#161b22" rx="2"/><rect x="49.230769230769226" y="317.1428571428571" width="13.615384615384615" height="41.857142857142854" fill="#006d32" rx="2"/><rect x="63.84615384615385" y="317.1428571428571" width="13.615384615384615" height="41.857142857142854" fill="#161b22" rx="2"/><rect x="78.46153846153845" y="317.1428571428571" width="13.615384615384615" height="41.857142857142854" fill="#26a641" rx="2"/><rect x="93.07692307692308" y="317.1428571428571" width="13.615384615384615" height="41.857142857142854" fill="#161b22" rx="2"/><rect x="107.6923076923077" y="317.1428571428571" width="13.615384615384615" height="41.857142857142854" fill="#161b22" rx="2"/><rect x="122.3076923076923" y="317.1428571428571" width="13.615384615384615" height="41.857142857142854" fill="#006d32" rx="2"/><rect x="136.9230769230769" y="317.1428571428571" width="13.615384615384615" height="41.857142857142854" fill="#161b22" rx="2"/><rect x="151.53846153846155" y="317.1428571428571" width="13.615384615384615" height="41.857142857142854" fill="#161b22" rx="2"/><rect x="166.15384615384616" y="317.1428571428571" width="13.615384615384615" height="41.857142857142854" fill="#0e4429" rx="2"/><rect x="180.76923076923077" y="317.1428571428571" width="13.615384615384615" height="41.857142857142854" fill="#161b22" rx="2"/><rect x="195.3846153846154" y="317.1428571428571" width="13.615384615384615" height="41.857142857142854" fill="#161b22" rx="2"/><rect x="210" y="317.1428571428571" width="13.615384615384615" height="41.857142857142854" fill="#161b22" rx="2"/><rect x="224.6153846153846" y="317.1428571428571" width="13.615384615384615" height="41.857142857142854" fill="#0e4429" rx="2"/><rect x="239.23076923076923" y="317.1428571428571" width="13.615384615384615" height="41.857142857142854" fill="#161b22" rx="2"/><rect x="253.84615384615384" y="317.1428571428571" width="13.615384615384615" height="41.857142857142854" fill="#161b22" rx="2"/><rect x="268.46153846153845" y="317.1428571428571" width="13.615384615384615" height="41.857142857142854" fill="#161b22" rx="2"/><rect x="283.0769230769231" y="317.1428571428571" width="13.615384615384615" height="41.857142857142854" fill="#161b22" rx="2"/><rect x="297.6923076923077" y="317.1428571428571" width="13.615384615384615" height="41.857142857142854" fill="#161b22" rx="2"/><rect x="312.3076923076923" y="317.1428571428571" width="13.615384615384615" height="41.857142857142854" fill="#161b22" rx="2"/><rect x="326.9230769230769" y="317.1428571428571" width="13.615384615384615" height="41.857142857142854" fill="#161b22" rx="2"/><rect x="341.53846153846155" y="317.1428571428571" width="13.615384615384615" height="41.857142857142854" fill="#006d32" rx="2"/><rect x="356.15384615384613" y="317.1428571428571" width="13.615384615384615" height="41.857142857142854" fill="#161b22" rx="2"/><rect x="370.7692307692308" y="317.1428571428571" width="13.615384615384615" height="41.857142857142854" fill="#0e4429" rx="2"/><rect x="385.38461538461536" y="317.1428571428571" width="13.615384615384615" height="41.857142857142854" fill="#161b22" rx="2"/><rect x="400" y="317.1428571428571" width="13.615384615384615" height="41.857142857142854" fill="#161b22" rx="2"/><rect x="414.6153846153846" y="317.1428571428571" width="13.615384615384615" height="41.857142857142854" fill="#161b22" rx="2"/><rect x="429.2307692307692" y="317.1428571428571" width="13.615384615384615" height="41.857142857142854" fill="#161b22" rx="2"/><rect x="443.8461538461538" y="317.1428571428571" width="13.615384615384615" height="41.857142857142854" fill="#161b22" rx="2"/><rect x="458.46153846153845" y="317.1428571428571" width="13.615384615384615" height="41.857142857142854" fill="#161b22" rx="2"/><rect x="473.07692307692304" y="317.1428571428571" width="13.615384615384615" height="41.857142857142854" fill="#161b22" rx="2"/><rect x="487.6923076923077" y="317.1428571428571" width="13.615384615384615" height="41.857142857142854" fill="#161b22" rx="2"/><rect x="502.3076923076923" y="317.1428571428571" width="13.615384615384615" height="41.857142857142854" fill="#161b22" rx="2"/><rect x="516.9230769230769" y="317.1428571428571" width="13.615384615384615" height="41.857142857142854" fill="#161b22" rx="2"/><rect x="531.5384615384615" y="317.1428571428571" width="13.615384615384615" height="41.857142857142854" fill="#161b22" rx="2"/><rect x="546.1538461538462" y="317.1428571428571" width="13.615384615384615" height="41.857142857142854" fill="#39d353" rx="2"/><rect x="560.7692307692307" y="317.1428571428571" width="13.615384615384615" height="41.857142857142854" fill="#161b22" rx="2"/><rect x="575.3846153846154" y="317.1428571428571" width="13.615384615384615" height="41.857142857142854" fill="#161b22" rx="2"/><rect x="590" y="317.1428571428571" width="13.615384615384615" height="41.857142857142854" fill="#161b22" rx="2"/><rect x="604.6153846153846" y="317.1428571428571" width="13.615384615384615" height="41.857142857142854" fill="#161b22" rx="2"/><rect x="619.2307692307692" y="317.1428571428571" width="13.615384615384615" height="41.857142857142854" fill="#161b22" rx="2"/><rect x="633.8461538461538" y="317.1428571428571" width="13.615384615384615" height="41.857142857142854" fill="#161b22" rx="2"/><rect x="648.4615384615385" y="317.1428571428571" width="13.615384615384615" height="41.857142857142854" fill="#161b22" rx="2"/><rect x="663.0769230769231" y="317.1428571428571" width="13.615384615384615" height="41.857142857142854" fill="#161b22" rx="2"/><rect x="677.6923076923076" y="317.1428571428571" width="13.615384615384615" height="41.857142857142854" fill="#161b22" rx="2"/><rect x="692.3076923076923" y="317.1428571428571" width="13.615384615384615" height="41.857142857142854" fill="#161b22" rx="2"/><rect x="706.9230769230769" y="317.1428571428571" width="13.615384615384615" height="41.857142857142854" fill="#161b22" rx="2"/><rect x="721.5384615384615" y="317.1428571428571" width="13.615384615384615" height="41.857142857142854" fill="#161b22" rx="2"/><rect x="736.1538461538462" y="317.1428571428571" width="13.615384615384615" height="41.857142857142854" fill="#161b22" rx="2"/><rect x="750.7692307692307" y="317.1428571428571" width="13.615384615384615" height="41.857142857142854" fill="#0e4429" rx="2"/><rect x="765.3846153846154" y="317.1428571428571" width="13.615384615384615" height="41.857142857142854" fill="#161b22" rx="2"/>
  
  <!-- Animated Light Cycles -->
  
    <g filter="url(#glow)">
      <circle r="3" fill="#00ffff">
        <animateMotion dur="4s" repeatCount="indefinite">
          <mpath href="#path0"/>
        </animateMotion>
      </circle>
    </g>
    <path id="path0" d="M100,100 L200,100 L200,200 L300,200 L300,300" fill="none" stroke="none"/>
    <g filter="url(#glow)">
      <circle r="3" fill="#ff4757">
        <animateMotion dur="5s" repeatCount="indefinite">
          <mpath href="#path1"/>
        </animateMotion>
      </circle>
    </g>
    <path id="path1" d="M500,100 L400,100 L400,200 L300,200 L300,150" fill="none" stroke="none"/>
    <g filter="url(#glow)">
      <circle r="3" fill="#ffa502">
        <animateMotion dur="6s" repeatCount="indefinite">
          <mpath href="#path2"/>
        </animateMotion>
      </circle>
    </g>
    <path id="path2" d="M100,250 L200,250 L200,200 L250,200 L250,150" fill="none" stroke="none"/>
    <g filter="url(#glow)">
      <circle r="3" fill="#7bed9f">
        <animateMotion dur="7s" repeatCount="indefinite">
          <mpath href="#path3"/>
        </animateMotion>
      </circle>
    </g>
    <path id="path3" d="M500,250 L400,250 L400,200 L350,200 L350,250" fill="none" stroke="none"/>
  
  <!-- Trails -->
  
  <path d="M100,100 L200,100 L200,200 L300,200" stroke="url(#trailGradient)" stroke-width="2" fill="none" opacity="0.6">
    <animate attributeName="opacity" values="0.6;0.2;0.6" dur="2s" repeatCount="indefinite"/>
  </path>
  <path d="M500,100 L400,100 L400,200 L300,200" stroke="#ff4757" stroke-width="2" fill="none" opacity="0.4">
    <animate attributeName="opacity" values="0.4;0.1;0.4" dur="2.5s" repeatCount="indefinite"/>
  </path>
  
  <!-- Game Info -->
  <text x="20" y="380" fill="#24292f" font-family="Arial, sans-serif" font-size="12">
    🎮 Auto-playing Tron Light Cycles • AI vs AI Racing
  </text>
  
</svg>