<svg width="740" height="200" xmlns="http://www.w3.org/2000/svg">
  <defs>
    <style>
      .bg { fill: #000000; }
      .grid-bg { fill: #0d1117; stroke: #161b22; stroke-width: 0.5; }
      .contrib-0 { fill: #0d1117; }
      .contrib-1 { fill: #0e4429; }
      .contrib-2 { fill: #006d32; }
      .contrib-3 { fill: #26a641; }
      .contrib-4 { fill: #39d353; }
      
      .cycle1 { fill: #00d4ff; }
      .cycle2 { fill: #ff4757; }
      .cycle3 { fill: #ffa502; }
      .cycle4 { fill: #7bed9f; }
      
      .trail1 { fill: #00d4ff; opacity: 0.6; }
      .trail2 { fill: #ff4757; opacity: 0.6; }
      .trail3 { fill: #ffa502; opacity: 0.6; }
      .trail4 { fill: #7bed9f; opacity: 0.6; }
      
      .title { fill: #00d4ff; font-family: 'Courier New', monospace; font-size: 16px; font-weight: bold; }
      .subtitle { fill: #8b949e; font-family: Arial, sans-serif; font-size: 12px; }
      
      .cycle1-move { animation: cycle1-path 8s linear infinite; }
      .cycle2-move { animation: cycle2-path 8s linear infinite 2s; }
      .cycle3-move { animation: cycle3-path 8s linear infinite 4s; }
      .cycle4-move { animation: cycle4-path 8s linear infinite 6s; }
      
      @keyframes cycle1-path {
        0% { transform: translate(0, 0); }
        25% { transform: translate(200px, 0); }
        50% { transform: translate(200px, 60px); }
        75% { transform: translate(400px, 60px); }
        100% { transform: translate(400px, 120px); }
      }
      
      @keyframes cycle2-path {
        0% { transform: translate(600px, 0); }
        25% { transform: translate(400px, 0); }
        50% { transform: translate(400px, 40px); }
        75% { transform: translate(200px, 40px); }
        100% { transform: translate(200px, 80px); }
      }
      
      @keyframes cycle3-path {
        0% { transform: translate(0, 120px); }
        25% { transform: translate(150px, 120px); }
        50% { transform: translate(150px, 80px); }
        75% { transform: translate(300px, 80px); }
        100% { transform: translate(300px, 40px); }
      }
      
      @keyframes cycle4-path {
        0% { transform: translate(600px, 120px); }
        25% { transform: translate(450px, 120px); }
        50% { transform: translate(450px, 100px); }
        75% { transform: translate(250px, 100px); }
        100% { transform: translate(250px, 60px); }
      }
    </style>
  </defs>
  
  <!-- Background -->
  <rect width="740" height="200" class="bg"/>
  
  <!-- Title -->
  <text x="20" y="20" class="title">🏍️ CONTRIB TRON - AI LIGHT CYCLES</text>
  <text x="20" y="185" class="subtitle">Watch AI motorcycles race through GitHub contribution data • Updates daily</text>
  
  <!-- Contribution Grid Background -->
  <g transform="translate(50, 40)">
    <!-- Create a 7x52 grid pattern (simplified to 7x30 for display) -->
    <g id="grid">
      <!-- Row 1 -->
      <rect x="0" y="0" width="12" height="12" class="contrib-1"/>
      <rect x="14" y="0" width="12" height="12" class="contrib-0"/>
      <rect x="28" y="0" width="12" height="12" class="contrib-2"/>
      <rect x="42" y="0" width="12" height="12" class="contrib-3"/>
      <rect x="56" y="0" width="12" height="12" class="contrib-1"/>
      <rect x="70" y="0" width="12" height="12" class="contrib-4"/>
      <rect x="84" y="0" width="12" height="12" class="contrib-2"/>
      <rect x="98" y="0" width="12" height="12" class="contrib-0"/>
      <rect x="112" y="0" width="12" height="12" class="contrib-3"/>
      <rect x="126" y="0" width="12" height="12" class="contrib-1"/>
      <rect x="140" y="0" width="12" height="12" class="contrib-2"/>
      <rect x="154" y="0" width="12" height="12" class="contrib-4"/>
      <rect x="168" y="0" width="12" height="12" class="contrib-1"/>
      <rect x="182" y="0" width="12" height="12" class="contrib-0"/>
      <rect x="196" y="0" width="12" height="12" class="contrib-3"/>
      <rect x="210" y="0" width="12" height="12" class="contrib-2"/>
      <rect x="224" y="0" width="12" height="12" class="contrib-1"/>
      <rect x="238" y="0" width="12" height="12" class="contrib-4"/>
      <rect x="252" y="0" width="12" height="12" class="contrib-0"/>
      <rect x="266" y="0" width="12" height="12" class="contrib-2"/>
      <rect x="280" y="0" width="12" height="12" class="contrib-3"/>
      <rect x="294" y="0" width="12" height="12" class="contrib-1"/>
      <rect x="308" y="0" width="12" height="12" class="contrib-2"/>
      <rect x="322" y="0" width="12" height="12" class="contrib-4"/>
      <rect x="336" y="0" width="12" height="12" class="contrib-0"/>
      <rect x="350" y="0" width="12" height="12" class="contrib-1"/>
      <rect x="364" y="0" width="12" height="12" class="contrib-3"/>
      <rect x="378" y="0" width="12" height="12" class="contrib-2"/>
      <rect x="392" y="0" width="12" height="12" class="contrib-1"/>
      <rect x="406" y="0" width="12" height="12" class="contrib-4"/>
      <rect x="420" y="0" width="12" height="12" class="contrib-0"/>
      <rect x="434" y="0" width="12" height="12" class="contrib-2"/>
      <rect x="448" y="0" width="12" height="12" class="contrib-3"/>
      <rect x="462" y="0" width="12" height="12" class="contrib-1"/>
      <rect x="476" y="0" width="12" height="12" class="contrib-2"/>
      <rect x="490" y="0" width="12" height="12" class="contrib-4"/>
      <rect x="504" y="0" width="12" height="12" class="contrib-0"/>
      <rect x="518" y="0" width="12" height="12" class="contrib-1"/>
      <rect x="532" y="0" width="12" height="12" class="contrib-3"/>
      <rect x="546" y="0" width="12" height="12" class="contrib-2"/>
      <rect x="560" y="0" width="12" height="12" class="contrib-1"/>
      <rect x="574" y="0" width="12" height="12" class="contrib-4"/>
      <rect x="588" y="0" width="12" height="12" class="contrib-0"/>
      <rect x="602" y="0" width="12" height="12" class="contrib-2"/>
      <rect x="616" y="0" width="12" height="12" class="contrib-3"/>
      <rect x="630" y="0" width="12" height="12" class="contrib-1"/>
      
      <!-- Repeat pattern for other rows with slight variations -->
      <use href="#row1" transform="translate(0, 14)"/>
      <use href="#row1" transform="translate(0, 28)"/>
      <use href="#row1" transform="translate(0, 42)"/>
      <use href="#row1" transform="translate(0, 56)"/>
      <use href="#row1" transform="translate(0, 70)"/>
      <use href="#row1" transform="translate(0, 84)"/>
      <use href="#row1" transform="translate(0, 98)"/>
      <use href="#row1" transform="translate(0, 112)"/>
    </g>
    
    <!-- Light Cycles -->
    <rect x="0" y="0" width="12" height="12" class="cycle1 cycle1-move"/>
    <rect x="600" y="0" width="12" height="12" class="cycle2 cycle2-move"/>
    <rect x="0" y="112" width="12" height="12" class="cycle3 cycle3-move"/>
    <rect x="600" y="112" width="12" height="12" class="cycle4 cycle4-move"/>
  </g>
  
  <!-- Status indicators -->
  <circle cx="680" cy="50" r="4" class="cycle1"/>
  <text x="690" y="54" class="subtitle">Cyan Cycle</text>
  <circle cx="680" cy="70" r="4" class="cycle2"/>
  <text x="690" y="74" class="subtitle">Red Cycle</text>
  <circle cx="680" cy="90" r="4" class="cycle3"/>
  <text x="690" y="94" class="subtitle">Orange Cycle</text>
  <circle cx="680" cy="110" r="4" class="cycle4"/>
  <text x="690" y="114" class="subtitle">Green Cycle</text>
</svg>
